<svg xmlns="http://www.w3.org/2000/svg" width="47.083" height="37.346" viewBox="0 0 47.083 37.346"><defs><style>.a{fill:#4473c5;fill-rule:evenodd;}</style></defs><g transform="translate(-0.008 0.003)"><path class="a" d="M31.756,34.784V23.134l.01-.2.029-.19.048-.184.065-.176.081-.168.1-.158.111-.148.124-.137.137-.124.148-.111.158-.1.168-.081.176-.065.184-.047.19-.029.2-.01h11.65l.2.01.19.029.184.047.176.065.168.081.114.069-2.612-1.782-.148-.111-.158-.1-.168-.081-.176-.065-.184-.048-.19-.029-.2-.01H30.872l-.2.01-.19.029-.184.048-.176.065-.168.081-.158.1-.148.111-.137.124-.124.137-.111.148-.1.158-.081.168-.065.176-.048.184-.029.19-.01.2v11.65l.01.2.029.19.048.184.065.176.081.168.1.158.111.148.124.137.137.124.148.111,2.8,1.92-.148-.111-.137-.124L32.2,36l-.111-.148-.1-.158-.081-.168-.065-.176-.048-.184-.029-.19-.01-.2Zm-10-20.1c.238-.709.1-7.352.1-8.683,0-1.54.119-2.764-1.084-3.313C19.893,2.292,5.809,2.5,3.3,2.5c-1.513,0-2.737.027-3.144,1.316-.257.815-.1,7.348-.1,8.734,0,1.482-.052,2.8,1.125,3.3.859.367,14.963.172,17.46.174,1.64,0,2.661.016,3.115-1.338ZM1.663,6.391c2.108.163,2.128-1.436,2.23-2.231h13.99c.1.886,0,1.224.578,1.786a1.9,1.9,0,0,0,1.757.534L20.2,12.294c-1.629-.173-2.17.629-2.363,2.1H3.944c-.277-1.439-.466-2.338-2.31-2.23l.028-5.769Zm8.445-1.13c-5.455,1.242-3.483,9.25,1.8,8.043A4.165,4.165,0,0,0,15,8.34a4.1,4.1,0,0,0-4.888-3.079Zm.327,5.694A9.774,9.774,0,0,1,8.882,9.321l.81-.724.723.744c.628-.462,1.323-1.477,1.93-1.775l.691.707a25.845,25.845,0,0,1-2.6,2.683Zm6.193-2.728a1.116,1.116,0,1,0,.745,2.1c1.286-.412.736-2.648-.745-2.1ZM4.6,8.22a1.111,1.111,0,0,0,.652,2.125C6.581,9.945,6.124,7.717,4.6,8.22ZM17.9,36.1a2.351,2.351,0,0,1-4.149-2.213L31.143,1.242a2.351,2.351,0,1,1,4.149,2.213ZM32.6,23.75v10.9l.009.183.027.178.044.172.061.165.076.157.09.148.1.138.116.128.128.116.138.1.148.09.157.076.165.061.172.044.178.027.183.009h10.9l.183-.009.178-.027.172-.044.165-.061.157-.076.148-.09.138-.1.128-.116.116-.128.1-.138.09-.148.076-.157.061-.165.044-.172.027-.178.009-.183V23.75l-.009-.183-.027-.178-.044-.172-.061-.165-.076-.157-.09-.148-.1-.138-.116-.128-.128-.116-.18-.129-.106-.065-.157-.076-.165-.061-.172-.044-.178-.027-.183-.009H34.4l-.183.009-.178.027-.172.044-.165.061-.157.076-.148.09-.138.1-.128.116-.116.128-.1.138-.09.148-.076.157-.061.165-.044.172-.027.178-.009.183Z" transform="translate(0)"/></g></svg>