<svg xmlns="http://www.w3.org/2000/svg" width="40.793" height="30" viewBox="0 0 40.793 30"><defs><style>.a{fill:#ffd766;}.b{fill:#f2c861;}.c{fill:#f7931e;}.d{fill:#e5811f;}</style></defs><g transform="translate(-1.072 -4.986)"><rect class="a" width="40.714" height="30" rx="3" transform="translate(1.072 4.986)"/><path class="b" d="M36.434,9.087v21.8a4.087,4.087,0,0,1-4.087,4.087H16V5H33.355a3.515,3.515,0,0,1,.749.272,3.787,3.787,0,0,1,.64.381l.286.232a4.087,4.087,0,0,1,1.4,3.2Z" transform="translate(5.429 0.001)"/><path class="c" d="M37.683,5H4.989A4.087,4.087,0,0,0,1.27,7.4L20.342,21.02a1.785,1.785,0,0,0,.994.327,1.717,1.717,0,0,0,1.008-.327L41.416,7.4A4.087,4.087,0,0,0,37.683,5Z" transform="translate(0.093 0.001)"/><path class="d" d="M16,21.347a1.717,1.717,0,0,0,1.008-.327L36.08,7.4A4.087,4.087,0,0,0,32.347,5H16Z" transform="translate(5.429 0.001)"/></g></svg>