<svg xmlns="http://www.w3.org/2000/svg" width="30" height="30" viewBox="0 0 30 30"><defs><style>.a{fill:#ed2524;}.b{fill:#fff;}</style></defs><rect class="a" width="30" height="30" rx="5"/><g transform="translate(6.045 6.045)"><path class="b" d="M35.507,27.9c.224,0,.224.224.448.448q.336,0,.672.672c0,.224.224.448.448.9V31.03a4.471,4.471,0,0,1-.448,2.015l-.672.672-.672.672-.448.448v.672a.822.822,0,0,0,.224.672l.224.224.9.672A5.936,5.936,0,0,1,37.3,38.418a2.737,2.737,0,0,1,.672,2.015,3.524,3.524,0,0,1-1.567,2.91c-.9.9-2.463,1.343-4.478,1.343-1.567,0-2.91-.224-3.582-.9A2.725,2.725,0,0,1,27,41.552a5.7,5.7,0,0,1,.448-1.567,3.8,3.8,0,0,1,1.343-1.343,10.913,10.913,0,0,1,2.463-.9c.9,0,1.567-.224,2.015-.224-.224-.224-.224-.448-.448-.672s-.224-.448-.224-.9v-.448a.693.693,0,0,0,.224-.448h-.672a3.868,3.868,0,0,1-2.91-1.119,3.6,3.6,0,0,1-1.119-2.463,4.7,4.7,0,0,1,1.567-3.134A4.576,4.576,0,0,1,31.7,27.224,6.2,6.2,0,0,1,33.716,27h4.7l-1.343.9Zm.9,13.433h0a3.236,3.236,0,0,0-.448-1.567,21.682,21.682,0,0,0-2.015-1.567H32.6a3.236,3.236,0,0,0-1.567.448c-.224,0-.224,0-.448.224-.224,0-.448.224-.672.224a3.091,3.091,0,0,0-.672.9c0,.224-.224.672-.224.9A2.351,2.351,0,0,0,30.134,42.9a4.128,4.128,0,0,0,2.91.9,3.6,3.6,0,0,0,2.463-.672A2.036,2.036,0,0,0,36.4,41.328Zm-3.134-6.94h0a1.6,1.6,0,0,0,1.343-.672,1.163,1.163,0,0,0,.448-.9v-.672a6.894,6.894,0,0,0-.672-2.91,3.931,3.931,0,0,0-.9-1.119,1.678,1.678,0,0,0-1.119-.224,1.743,1.743,0,0,0-1.567.672,2.542,2.542,0,0,0-.672,1.791,4.168,4.168,0,0,0,.9,2.463,2.235,2.235,0,0,0,.9,1.119C32.149,34.388,32.6,34.388,33.269,34.388Z" transform="translate(-27 -27)"/><path class="b" d="M85.045,30.239H82.582V28H81.463v2.239H79v1.343h2.463v2.463h1.119V31.582h2.463Z" transform="translate(-67.358 -27.776)"/></g></svg>