<svg xmlns="http://www.w3.org/2000/svg" width="41.001" height="39.631" viewBox="0 0 41.001 39.631"><defs><style>.a{fill:#282b45;}.a,.b,.c,.d,.e,.f,.g,.h{fill-rule:evenodd;}.b{fill:#e28e37;}.c{fill:#d25f29;}.d{fill:#292c45;}.e{fill:#ffca2d;}.f{fill:#4adede;}.g{fill:#40c3c3;}.h{fill:#e7b628;}</style></defs><path class="a" d="M3072.782,3074.248l.681-.01,0-.754,0-.607-1.363-.007-.01,1.379Z" transform="translate(-3063.896 -3064.674)"/><path class="a" d="M11782.613,3076.852l-.014.943.947,0,.432,0v-.431l-.014-.934h-.932l-.418,0Z" transform="translate(-11751.172 -3068.224)"/><path class="a" d="M3073.785,4100.339l-.005.432,1.029-.006h.339V4099.4h-1.363Z" transform="translate(-3065.581 -4088.466)"/><path class="b" d="M7942.1,2303.523l2.751-.014-.036-2.74-2.709.007Z" transform="translate(-7920.916 -2294.633)"/><path class="b" d="M6397.38,2303.281l2.756.053,0-2.746-2.719-.008Z" transform="translate(-6380.316 -2294.444)"/><path class="c" d="M6397,3315.9l2.757-.009v-2.725l-2.756-.053Z" transform="translate(-6379.937 -3304.273)"/><path class="c" d="M7942.1,3330.6l2.761.009-.01-2.748-2.751.014Z" transform="translate(-7920.916 -3318.984)"/><path class="d" d="M6900.689,6671l.664,0v-.685c.223-.417.879-.3,1.257-1.392a3.474,3.474,0,0,0-.158-2.353c-.935-1.719-3.226-.2-2.348-2.9,1.032-.458.948.063,1.336.5l1.276-.005a1.975,1.975,0,0,0-1.328-1.912l-.04-.818h-1.358l-.019.819a2.591,2.591,0,0,0-.522,4.245c.937.648,1.873.029,1.9,1.338.011.57-.064.955-.552,1.057-.6.124-.656-.337-.895-.626h-1.277a1.973,1.973,0,0,0,1.331,1.909l.04.82Z" transform="translate(-6880.17 -6643.671)"/><path class="d" d="M7429.1,2306.127v6.827l.7,0,.668,0-.006-4.1v-2.725l.005-2.747H7429.1Z" transform="translate(-7409.285 -2297.236)"/><path class="d" d="M3076.694,1.405V.86h-1.364V7.69l1.369,0Z" transform="translate(-3067.127 -0.858)"/><path class="d" d="M11785.8.549V6.827h1.355V0l-1.359,0Z" transform="translate(-11754.364)"/><path class="d" d="M85.31,3930.934l.86.83a26.313,26.313,0,0,0,2.767-2.664l-.925-.969A29.273,29.273,0,0,0,85.31,3930.934Z" transform="translate(-85.082 -3917.653)"/><path class="d" d="M85.31,854.155a28.808,28.808,0,0,0,2.679,2.781l.973-.922a26.834,26.834,0,0,0-2.807-2.7A3.706,3.706,0,0,1,85.31,854.155Z" transform="translate(-85.082 -851.034)"/><path class="d" d="M13922.192,3936.681a28.412,28.412,0,0,0,2.672,2.772l.969-.925-2.676-2.679Z" transform="translate(-13885.057 -3925.352)"/><path class="d" d="M13927.7,857l.925.972,2.681-2.679-.926-.97Z" transform="translate(-13890.551 -852.041)"/><path class="d" d="M0,2817.541l0,.345,3.418-.005.007-1.37L0,2816.517Z" transform="translate(0 -2808.998)"/><path class="d" d="M14090.205,2819.426l3.414,0v-1.365l-3.418,0Z" transform="translate(-14052.618 -2810.543)"/><path class="e" d="M8967.514,9.195l.42,0h.931l.012.934v.431l-.431,0-.946,0,.015-.943v-.42Zm0-7.658-7.541,5.588.036,2.74.01,2.748a25.453,25.453,0,0,0,2.4,1.838c.81.592,1.586,1.183,2.442,1.826.826.619,1.6,1.2,2.44,1.831.5.377.669.664,1.485.659.711,0,1.437.009,2.145-.005l-.007-17.77h-2.055V7.815h-1.356V1.537Z" transform="translate(-8936.07 -0.987)"/><path class="f" d="M4863.036,5899.967l0-12.3h-.694l-.04-.82a1.973,1.973,0,0,1-1.33-1.909h1.276c.24.289.292.75.895.625.488-.1.564-.486.553-1.055-.026-1.31-.962-.69-1.9-1.339a2.591,2.591,0,0,1,.522-4.245l.018-.819h.693l.01-2.052h-.7a38.306,38.306,0,0,0-4.711.061,2.774,2.774,0,0,0-2.118,2.669c-.081,3.144-.013,6.412,0,9.566l3.417,0,0,11.616Z" transform="translate(-4842.513 -5860.337)"/><path class="g" d="M7400.666,5878.171h.666l.04.819a1.973,1.973,0,0,1,1.328,1.912l-1.277,0c-.387-.431-.3-.952-1.335-.495-.878,2.7,1.413,1.177,2.348,2.9a3.474,3.474,0,0,1,.158,2.353c-.377,1.095-1.034.975-1.257,1.392v.685l-.664,0,0,12.3h4.08l0-11.615h3.416c0-3.169.066-6.4,0-9.567a2.744,2.744,0,0,0-2.113-2.669,40.02,40.02,0,0,0-4.713-.065l-.668,0Z" transform="translate(-7380.152 -5860.403)"/><path class="e" d="M2308.324,11.405l.51,0,.854,0v1.363h-.339l-1.028.005.005-.431v-.938Zm.681-1.362-.692,0,.01-1.379,1.363.007,0,.607,0,.754-.681.01Zm8.178-.737.034-2.7-7.531-5.589.005,6.289-1.369,0V.472h-2.049l0,9.908v7.855c.7.024,1.435,0,2.139.009.833.007.966-.268,1.481-.658,1.258-.953,6.6-4.869,7.29-5.491V9.306Z" transform="translate(-2300.119 -0.469)"/><path class="h" d="M2308.3,3334.578h1.364l0,.938v.425h-.339l-1.029.005.005-.431Zm-2.053-2.047h2.047l0,.687.692,0,.681-.01,0-.675h7.493v2.736c-.687.622-6.032,4.538-7.29,5.49-.516.391-.648.666-1.481.659-.7,0-1.44.015-2.139-.008v-8.876Z" transform="translate(-2300.099 -3323.641)"/><path class="h" d="M8982.288,3346.391l0,.214v.431l-.432,0-.946,0,.01-.645h-7.5l.011,2.7a25.322,25.322,0,0,0,2.4,1.838c.809.592,1.586,1.183,2.443,1.826.824.619,1.6,1.2,2.439,1.831.5.377.669.664,1.484.659.711,0,1.438.009,2.146,0l0-8.847Z" transform="translate(-8949.485 -3337.465)"/></svg>