<svg xmlns="http://www.w3.org/2000/svg" width="36.74" height="47.648" viewBox="0 0 36.74 47.648"><defs><style>.a{fill:#dd8c65;}.a,.b,.c,.d,.e,.f{fill-rule:evenodd;}.b{fill:#e18c65;}.c{fill:#e18d64;}.d{fill:#f4e87c;}.e{fill:#6ee0fa;}.f{fill:#2460a0;}</style></defs><g transform="translate(0.009 -0.07)"><g transform="translate(-0.009 0.07)"><g transform="translate(2.712 22.203)"><path class="a" d="M981.612,10105.445a.7.7,0,0,0-1.346-.336C980.077,10105.813,981.066,10106.241,981.612,10105.445Z" transform="translate(-980.242 -10098.9)"/><path class="a" d="M982.388,8026.289l.071-.656-.326-.279-.69-.015c-.9.808.168,1.52.945.95Z" transform="translate(-981.098 -8025.339)"/></g><g transform="translate(2.344 10.621)"><path class="b" d="M849.242,12080.693c1.188-.4.97-.574,1.606-1.424.636-.039.969-.006,1.052-.742-.585-.848-.873-.105-1.188-.674.178-.146-.056-.049.215-.119.093-.021,1.249.117.919-.807-.209-.584-1.218-.369-1.707-.371-.915-.006-3.553-.5-2.75,1.021.847.322,1.365-.158,2.052.439-.882.139-1.673-.273-2.234.414.045,1.2,1.321.7,2.245.816-.58.633-1.2.088-1.873.348-.812.313-.2,1.018.156,1.346.784.729,1.533,1.393,2.321,2.16.606-.006.757-.168.786-.775C850.412,12081.684,849.685,12081.271,849.242,12080.693Z" transform="translate(-847.178 -12053.684)"/><path class="b" d="M5544.286,3838.934a.573.573,0,0,0,.214,1.112l6.377-.054a.579.579,0,0,0-.235-1.091Z" transform="translate(-5530.91 -3838.9)"/></g><g transform="translate(2.673 6.244)"><path class="c" d="M1185.068,2264.468l9.6.021.032-7.412-9.655-.006Z" transform="translate(-1184.444 -2257.07)"/><path class="c" d="M2755.916,12088.671c-.167-.862-.781-.157-1.164-.738l.7-.128c.812-.119.429-.984.14-1.129-.7-.09-1.7-.021-2.449-.041-.679-.02-1.371-.174-1.861.331l.026.5c.285.7,1.4-.048,2.2.653-.831.131-1.581-.23-2.209.319-.191,1.328,1.3.755,2.2.919-.879.628-1.68-.05-2.173.572-.221.656.112.717.518,1.079.573.511,1.781,2.214,2.677,2.209l.369-.378c.017-.928-1.311-1.362-1.594-2.067.884-.25,1.116-.611,1.547-1.408C2755.289,12089.352,2756.051,12089.37,2755.916,12088.671Z" transform="translate(-2746.312 -12059.402)"/><path class="c" d="M3323.079,6266.145a.558.558,0,0,0-.09,1.057c.332.133,12.549.094,12.782-.021a.583.583,0,0,0-.017-1.034C3335.457,6266.031,3323.318,6266.058,3323.079,6266.145Z" transform="translate(-3316.129 -6254.978)"/><path class="c" d="M3328.4,8016c.441.567.637.341,1.362.363,1.827.059,3.735-.058,5.559,0,1.152.039,2.449.009,3.608-.013.711-.012,3.153.388,2.9-.72-.135-.593-.9-.439-1.342-.437l-11.02,0C3328.745,8015.193,3328.379,8015.166,3328.4,8016Z" transform="translate(-3321.863 -7999.249)"/><path class="c" d="M3334.447,10109.35c.794.014,1.259-.176.894-1.037a19.7,19.7,0,0,0-3.926-.121c-.922,0-3.446-.215-3.7.352-.046.9.441.818,1.166.818.617,0,1.234-.023,1.853-.008C3331.966,10109.383,3333.211,10109.359,3334.447,10109.35Z" transform="translate(-3321.177 -10086.43)"/><path class="c" d="M5549.81,2924.753c-.292.781.014.985.758,1.012a52.7,52.7,0,0,0,6.269-.126c.469-.45,0-1.048-.7-1.057s-1.439.031-2.149.017C5553.249,2924.584,5550.279,2924.473,5549.81,2924.753Z" transform="translate(-5537.02 -2922.718)"/><path class="c" d="M5548.159,4710.245c-.1,1.152,1.123.825,3.115.826a25.425,25.425,0,0,0,3.953-.087c.932-1.549-1.973-1.073-2.88-1.072-.75,0-1.493,0-2.243,0C5549.331,4709.911,5548.63,4709.7,5548.159,4710.245Z" transform="translate(-5535.476 -4703.055)"/><path class="c" d="M1871.068,7997.492a12.691,12.691,0,0,0,1.858.033c.847-.061.872-.881.431-1.089S1869.738,7996.021,1871.068,7997.492Z" transform="translate(-1868.243 -7980.414)"/><path class="c" d="M1869.069,6269.965c-.595.254-.626.992.077,1.107a9.675,9.675,0,0,0,2.02-.022.584.584,0,0,0-.187-1.113A9.9,9.9,0,0,0,1869.069,6269.965Z" transform="translate(-1866.124 -6258.803)"/><path class="c" d="M1879.874,10112.877c.108.59,1.161.414,1.647.43.519.017,1.429.031,1.149-.787-.184-.534-1.143-.385-1.637-.4C1880.483,10112.094,1879.733,10112.11,1879.874,10112.877Z" transform="translate(-1877.329 -10090.377)"/><path class="c" d="M966.54,6266.779c-.928.33-.095,1.492.706,1.041C967.846,6267.482,967.535,6266.425,966.54,6266.779Z" transform="translate(-966.131 -6255.614)"/></g><path class="d" d="M7.634,33.878c.49-.5,1.183-.35,1.861-.332.748.02,1.75-.048,2.449.041.29.146.672,1.011-.14,1.129l-.7.128c.384.581,1-.124,1.164.738.135.7-.627.68-1.077.689-.43.8-.663,1.157-1.547,1.408.283.7,1.61,1.139,1.594,2.066l-.369.379c-.9,0-2.1-1.7-2.677-2.209-.406-.362-.739-.423-.518-1.079.494-.623,1.295.055,2.173-.572-.9-.165-2.389.409-2.2-.92.628-.549,1.378-.188,2.209-.318-.8-.7-1.912.046-2.2-.654l-.026-.494Zm-1.765.983c.315.569.6-.175,1.188.673-.084.737-.417.7-1.052.742-.635.85-.418,1.026-1.606,1.425.443.577,1.17.99,1.6,1.633-.029.606-.18.767-.786.774-.788-.767-1.536-1.432-2.321-2.16-.351-.326-.968-1.033-.156-1.346.672-.259,1.293.284,1.873-.348-.924-.121-2.2.381-2.245-.816.561-.687,1.353-.276,2.234-.413-.687-.6-1.2-.117-2.052-.439-.8-1.522,1.835-1.028,2.75-1.022.489,0,1.5-.213,1.707.372.33.922-.827.783-.919.807-.271.069-.037-.027-.215.119Zm-.659-6.046c-.141-.766.609-.784,1.159-.762.495.019,1.454-.13,1.638.405.28.818-.63.8-1.149.787-.486-.016-1.539.16-1.647-.429Zm-1.137,0c-.545.8-1.535.367-1.346-.336A.7.7,0,0,1,4.072,28.818Zm1.417-5.424c-1.331-1.472,1.857-1.26,2.289-1.056s.416,1.029-.431,1.089a12.75,12.75,0,0,1-1.858-.033Zm-1.5-.171c-.777.57-1.844-.143-.945-.949l.69.014.326.279-.071.656ZM9.2,23.067c-.021-.833.345-.807,1.068-.8l11.02,0c.445,0,1.207-.156,1.342.438.251,1.108-2.191.707-2.9.72-1.159.021-2.456.051-3.608.012-1.824-.062-3.731.054-5.559,0-.724-.023-.92.2-1.362-.364Zm-3.591-5.59a9.912,9.912,0,0,1,1.91-.027.584.584,0,0,1,.187,1.113,9.668,9.668,0,0,1-2.02.022c-.7-.116-.672-.853-.077-1.107Zm4,.005c.239-.087,12.378-.114,12.675,0a.583.583,0,0,1,.017,1.034c-.233.115-12.451.154-12.783.021a.558.558,0,0,1,.09-1.057Zm-6.541,0c1-.354,1.306.7.706,1.041C2.978,18.971,2.144,17.81,3.072,17.48Zm14.218-4.309c.75,0,1.494,0,2.243,0,.907,0,3.812-.478,2.881,1.071a25.35,25.35,0,0,1-3.954.087c-1.992,0-3.214.327-3.115-.825.471-.549,1.172-.335,1.944-.334ZM3.269,6.315l9.655.006-.032,7.412-9.6-.021-.018-7.4Zm18.8,4.376a.579.579,0,0,1,.235,1.091l-6.377.055a.573.573,0,0,1-.214-1.112l6.356-.034ZM21.78,8.179c.7.008,1.17.607.7,1.057a52.69,52.69,0,0,1-6.269.126c-.745-.027-1.05-.232-.759-1.012.469-.28,3.439-.169,4.177-.154.71.014,1.442-.025,2.149-.017ZM14.04,39.565c-.109-.939-.4-1.685-.444-2.751a11.462,11.462,0,0,1,.259-3.078,11.153,11.153,0,0,1,2.079-4.5c-1.236.009-2.481.032-3.715,0-.619-.015-1.236.008-1.853.008-.724,0-1.212.079-1.166-.818.256-.567,2.78-.352,3.7-.353a19.767,19.767,0,0,1,3.926.121,11.4,11.4,0,0,1,3.467-2.52,11.876,11.876,0,0,1,5.007-1.07L25.325.143,22.181,2.581,19.032.08l-3.192,2.5L12.655.07,9.5,2.579,6.343.091,3.165,2.582.043.115-.009,45.964l3.154-2.458c.723.39,2.627,2.256,3.231,2.477L9.481,43.5c.9.5,2.405,2.162,3.239,2.487l3.192-2.563c-.2-.494-1.741-2.444-1.872-3.861Z" transform="translate(0.009 -0.07)"/><path class="e" d="M4922.685,8882.272l6.146-4.959c.387-.341,1.3-1.351,1.75-.575.358.618-.688,1.247-1.129,1.586l-6.187,5.026c-1.113.906-1.167-.078-2.973-1.986-.5-.532-2.14-2.05-1.223-2.517.659-.335,1.052.605,1.61,1.151C4921.438,8880.744,4922.042,8881.7,4922.685,8882.272Zm-6.363-10.309c.365.861-.1,1.051-.894,1.038a11.172,11.172,0,0,0-2.08,4.5,11.476,11.476,0,0,0-.258,3.078c.046,1.065.334,1.813.443,2.751.143.147.986,2.182,1.313,2.7a11.557,11.557,0,1,0,9.949-17.659,11.892,11.892,0,0,0-5.007,1.07A11.389,11.389,0,0,0,4916.322,8871.964Z" transform="translate(-4899.484 -8843.836)"/><path class="f" d="M6983.535,11794.547c-.642-.575-1.247-1.529-2.006-2.274-.558-.546-.951-1.485-1.61-1.151-.917.467.718,1.984,1.223,2.517,1.806,1.909,1.859,2.893,2.973,1.987l6.187-5.026c.441-.34,1.487-.969,1.129-1.587-.449-.775-1.363.235-1.75.575Z" transform="translate(-6960.334 -11756.11)"/></g></g></svg>