<svg xmlns="http://www.w3.org/2000/svg" width="30" height="30" viewBox="0 0 30 30"><defs><style>.a{fill:#379ad0;}.b{fill:#fefefe;fill-rule:evenodd;}</style></defs><path class="a" d="M2.836,0H27.164A2.836,2.836,0,0,1,30,2.836V27.164A2.836,2.836,0,0,1,27.164,30H2.836A2.836,2.836,0,0,1,0,27.164V2.836A2.836,2.836,0,0,1,2.836,0Z"/><g transform="translate(5.821 5.821)"><path class="b" d="M39,83.284v8.955h4.328V80H39Z" transform="translate(-39 -73.881)"/><path class="b" d="M41.239,39a2.165,2.165,0,1,0,0,4.328,2.247,2.247,0,0,0,2.09-2.09A2.274,2.274,0,0,0,41.239,39Z" transform="translate(-39 -39)"/><path class="b" d="M95.493,83.731C95.194,81.493,94.149,80,91.015,80a4.128,4.128,0,0,0-3.582,1.642h0V80H84V92.239h3.582V86.119c0-1.493.3-3.134,2.239-3.134s2.09,1.94,2.09,3.284v5.97h3.731V85.522h0A7.267,7.267,0,0,0,95.493,83.731Z" transform="translate(-77.284 -73.881)"/></g></svg>