<svg xmlns="http://www.w3.org/2000/svg" width="36.942" height="32" viewBox="0 0 36.942 32"><defs><style>.a{fill:none;stroke:#078cd6;stroke-linecap:round;stroke-linejoin:round;stroke-width:2px;}</style></defs><g transform="translate(-3 -6.924)"><path class="a" d="M37.577,40.119A14.975,14.975,0,0,1,9.38,40" transform="translate(-2.023 -12.062)"/><path class="a" d="M9.43,17.818a14.975,14.975,0,0,1,28.222.137" transform="translate(-2.042 0)"/><path class="a" d="M34.547,40.259c-.967,5.709-3.488,9.777-6.439,9.777s-5.5-4.124-6.458-9.9" transform="translate(-6.637 -12.115)"/><path class="a" d="M21.6,17.983C22.53,12.118,25.082,8,28.089,8s5.522,4.156,6.47,9.983" transform="translate(-6.618 -0.029)"/><rect class="a" width="34.942" height="9.983" rx="2" transform="translate(4 17.955)"/><path class="a" d="M27.07,29.64,28.6,33.1l1.541-2.739L31.687,33.1l1.535-3.463" transform="translate(-8.675 -8.166)"/><path class="a" d="M13.07,29.64,14.6,33.1l1.541-2.739L17.687,33.1l1.535-3.463" transform="translate(-3.411 -8.166)"/><path class="a" d="M41.07,29.64,42.6,33.1l1.541-2.739L45.687,33.1l1.535-3.463" transform="translate(-13.94 -8.166)"/></g></svg>