<svg xmlns="http://www.w3.org/2000/svg" width="40" height="39.555" viewBox="0 0 40 39.555"><defs><style>.a{fill:#d98b56;fill-rule:evenodd;}</style></defs><path class="a" d="M3990.486,8534.42c.6.039,5.966,2.1,7.19,2.484,2.875.906,5.257,1.27,8.237.18a87.3,87.3,0,0,0,9.818-4.754c1.082-.621,5.82-2.8,6.246-3.434.715-1.062.094-2.68-2.179-1.945-2.65.859-5.93,2.379-8.746,3.438-1.019.383-.767.48-1.429.965-1.047.77-2.447.7-4.041.719-1.506.012-3.094.105-4.654.121-1.05.012-4.218.547-3.623-.961.271-.4,1.9-.293,2.309-.3l7.527-.184c1.587-.082,2.937-.543,2.624-2.465-.287-1.758-1.635-1.57-3.344-1.648-1.421-.062-3.563-.1-4.883-.3a5.608,5.608,0,0,1-3.314-1.7c-2.818-2.273-4.514-1.828-8.231-1.918-.2-.832-.143-1.2-1.133-1.254l-5.729.156c-.506.023-.523.016-.753.273-.393.75.292,4.09.515,5.055a26.454,26.454,0,0,0,3.313,8.035c.627,1.055.624.859,2.064.836,1.018-.016,1.744.117,1.913-.836.161-.344.109-.18.08-.641Zm13.438-36.219a4.57,4.57,0,1,1-4.569,4.57A4.571,4.571,0,0,1,4003.924,8498.2Zm11.3,9.105a4.57,4.57,0,1,1-4.57,4.57A4.571,4.571,0,0,1,4015.226,8507.307Zm-10.587,6.074a4.57,4.57,0,1,1-4.57,4.57A4.571,4.571,0,0,1,4004.639,8513.381Z" transform="translate(-3982.26 -8498.201)"/></svg>