<svg xmlns="http://www.w3.org/2000/svg" width="40.464" height="40" viewBox="0 0 40.464 40"><defs><style>.a{fill:#44b8d1;fill-rule:evenodd;}</style></defs><path class="a" d="M1.959,28.345c2.092-.241,2.422-.722,2.728-2.746h16.8c.262,2.291.562,2.593,2.855,2.855v6.91c-2.147.066-2.529.6-2.89,2.584L4.678,37.94c-.246-1.948-.672-2.571-2.736-2.737l.017-6.857Zm18.048,2.19a1.335,1.335,0,1,0,.975,2.478c1.447-.624.65-3.2-.975-2.478ZM19.523,6.951a1.342,1.342,0,0,0,.787,2.565C21.916,9.033,21.364,6.343,19.523,6.951Zm14.521.009a1.348,1.348,0,1,0,.9,2.539C36.5,9,35.832,6.3,34.044,6.96ZM5.532,30.464a1.354,1.354,0,1,0,.721,2.609,1.354,1.354,0,0,0-.721-2.609Zm32.9-6.139c.8-.14,2.145.268,1.826-.686a40.132,40.132,0,0,0-3.065-5.013c-.576.193-.7.739-1.013,1.3-.658,1.159-2.311,3.512-2.095,4.306l1.76.068c.1,2.606.357,5.152-2.117,6.242-1.376.606-3.512.181-5.118.336l.03,2.494c3.463.133,6.517.344,8.662-2.565,1.446-1.961.971-3.836,1.13-6.48ZM4.517,15.7c-.193-2.462-.246-4.381,1.232-5.681,1.565-1.377,3.783-.682,6-.9l-.03-2.487c-3.178-.249-5.876-.177-7.78,1.571-2.36,2.166-1.8,3.743-2.011,7.468-.74.13-1.8-.139-1.839.408A11.239,11.239,0,0,0,1.47,18.743c.26.446.494.9.776,1.383.93,1.585.91,1.77,1.937-.037.639-1.124,2.291-3.554,2.085-4.32L4.517,15.7Zm22.051-5.448a11.806,11.806,0,0,1-1.875-1.974l.978-.874.873.9c.759-.558,1.6-1.783,2.33-2.143l.835.854A31.192,31.192,0,0,1,26.567,10.253Zm-.395-6.874c-6.586,1.5-4.2,11.166,2.171,9.71A5.029,5.029,0,0,0,32.074,7.1a4.946,4.946,0,0,0-5.9-3.717ZM12.5,33.784l-1.867-1.75A2.154,2.154,0,0,1,11.642,31l.829.851c.759-.558,1.6-1.783,2.33-2.143l.835.854A29.174,29.174,0,0,1,12.5,33.784Zm-.412-6.865c-6.53,1.463-4.222,11.192,2.17,9.71C20.621,35.153,18.474,25.488,12.083,26.919ZM15.978,4.742c2.544.2,2.569-1.733,2.692-2.693H35.559c.122,1.069,0,1.477.7,2.156a2.288,2.288,0,0,0,2.121.644l-.019,7.018c-1.967-.209-2.62.759-2.853,2.529l-16.775,0c-.334-1.737-.563-2.822-2.788-2.692l.034-6.965ZM40.235,14.758c.287-.856.116-8.875.117-10.482,0-1.859.144-3.337-1.308-4C37.985-.207,20.983.043,17.952.04c-1.826,0-3.3.032-3.8,1.589-.311.984-.118,8.871-.118,10.544,0,1.789-.062,3.383,1.358,3.99,1.037.443,18.064.208,21.078.211C38.455,16.375,39.688,16.392,40.235,14.758ZM.043,38.019c.258,1.663,1.584,1.91,3.406,1.9H19.388c5.4,0,6.97.813,6.964-3.769q0-2.656,0-5.313c0-5.372.905-7.264-3.518-7.251-2.955.008-20.275-.154-21.207.109A2.318,2.318,0,0,0,.182,24.986c-.3.767-.29,12.063-.14,13.033Z" transform="translate(0.061 0.022)"/></svg>