<svg xmlns="http://www.w3.org/2000/svg" width="38.053" height="30" viewBox="0 0 38.053 30"><defs><style>.a{fill:#03a9f4;}</style></defs><path class="a" d="M38.053,5.552a16.656,16.656,0,0,1-4.495,1.2A7.573,7.573,0,0,0,36.99,2.563,15.883,15.883,0,0,1,32.043,4.4,7.969,7.969,0,0,0,23.481,2.53,7.6,7.6,0,0,0,18.729,11.3,22.313,22.313,0,0,1,2.649,3.38,7.446,7.446,0,0,0,5.047,13.5a7.888,7.888,0,0,1-3.525-.932v.083a7.664,7.664,0,0,0,6.25,7.438,8.012,8.012,0,0,1-2.045.249,7.1,7.1,0,0,1-1.477-.129,7.849,7.849,0,0,0,7.289,5.273,15.982,15.982,0,0,1-9.673,3.228A15.054,15.054,0,0,1,0,28.6,22.454,22.454,0,0,0,11.968,32a21.708,21.708,0,0,0,22.2-21.54c0-.335-.012-.658-.029-.978a15.317,15.317,0,0,0,3.91-3.93Z" transform="translate(0 -2)"/></svg>