<svg xmlns="http://www.w3.org/2000/svg" width="35.804" height="39.6" viewBox="0 0 35.804 39.6"><defs><style>.a{fill:#70ad46;}</style></defs><path class="a" d="M10.247-.01H25.681a1.179,1.179,0,0,1,.872.4l0,0a1.44,1.44,0,0,1,.362.967V17.973c-.207,0-.415.01-.614.016q-.543-.615-1.092-1.223V1.877H21.825V7.732h0a.993.993,0,0,1-.231.645.794.794,0,0,1-1.2.041L18.15,6.076,15.956,8.353a.815.815,0,0,1-.624.3.9.9,0,0,1-.853-.943V1.877H10.716v15.44l-.586.648-.022.024c-.353-.011-.741-.026-1.1-.006V1.358A1.442,1.442,0,0,1,9.373.391l0,0a1.179,1.179,0,0,1,.872-.4ZM21.735,27.641l-2.758,0V27.6l0-4.257h.775c0,.456-.048,3.374.023,3.56l1.955.008v.728Zm1.378-.736c1.225-.025,1.685.1,1.68-1.454a1.684,1.684,0,0,0-.357-1.239c-.325-.261-.876-.189-1.311-.2L23.113,26.9Zm-6.967-2.912c-.664.183-.9.923-.8,1.794.1.837.664,1.338,1.354,1.141.65-.186.874-.916.8-1.775C17.436,24.369,16.947,23.773,16.146,23.993Zm1.8-14.506a2.158,2.158,0,0,0-1.711,2.474,2.037,2.037,0,0,0,2.222,1.884,2.166,2.166,0,0,0,1.716-2.463,2.033,2.033,0,0,0-2.227-1.9Zm4.379,13.8a6.348,6.348,0,0,1,2.439.2c1.12.652,1.152,3.311.007,3.949a6.126,6.126,0,0,1-2.456.207l.01-4.352Zm-6.235-.059a1.879,1.879,0,0,1,2.225,1.858c.136,1.406-.449,2.458-1.581,2.612a1.871,1.871,0,0,1-2.21-1.863,2.464,2.464,0,0,1,.829-2.333,1.579,1.579,0,0,1,.736-.274Zm-4.528,2.929a1.6,1.6,0,0,0,.254.583c.44.482,1.557.208,1.366-.5-.156-.575-1.424-.305-2.02-1.117a1.222,1.222,0,0,1-.067-1.3c.464-.906,2.723-1.012,2.784.707l-.8.03c-.076-.532-.413-.722-.955-.61-.213.044-.414.151-.421.391-.013.508.883.52,1.544.807a1.381,1.381,0,0,1,.4,2.147,1.7,1.7,0,0,1-1.144.414,1.679,1.679,0,0,1-1.2-.348,1.656,1.656,0,0,1-.5-1.142l.759-.069Zm4.393-10.9c.2-.228.411-.431.6-.656.106-.126.195-.22.288-.327.135-.156.231-.2.287-.357a2.192,2.192,0,0,1-.927-.961c-.165.127-4.681,5.166-5.311,5.86-.067.074-.276.367-.359.382a12.266,12.266,0,0,0-1.871.038,1.257,1.257,0,0,0-.875,1.15c-.039.656,0,1.449,0,2.119v6.36A10.321,10.321,0,0,0,7.861,30.9a1.164,1.164,0,0,0,1.147.827H27.373a1.167,1.167,0,0,0,1.182-.85,11.388,11.388,0,0,0,.068-2.045v-4.24c0-.831.038-3.646-.005-4.235a1.246,1.246,0,0,0-.9-1.129,12.769,12.769,0,0,0-1.849-.032c-.087-.016-.064-.051-.193-.2-1.529-1.737-3.215-3.556-4.778-5.285a9.07,9.07,0,0,0-.7-.76,2.2,2.2,0,0,1-.927.962,4.586,4.586,0,0,0,.589.7c.193.221.393.416.588.64.537.62,1.243,1.349,1.778,1.966.4.465.8.861,1.177,1.31.185.219.425.432.593.664H12.409l3.548-3.94Zm7.553-.363a.909.909,0,0,1,.554.608Zm-3.259,1.843H19.2a.9.9,0,0,1-.853-.943h0a.979.979,0,0,1,.352-.762c.127.142.261.276.384.418.19.218.4.419.585.637s.386.436.582.65ZM16.184,1.877V5.536L17.569,4.1a.792.792,0,0,1,1.166,0l1.384,1.447V1.877H16.184ZM15.091,17.914h6.237L21.4,18H15.016l.075-.083ZM1.236,19.775H6.795a2.647,2.647,0,0,0-.086.53c-.043.731-.006,1.465-.006,2.2V28.34a.782.782,0,0,1-.382.1.9.9,0,0,1-.853-.943V21.662H1.705V37.7H16.2V32.924h1.7v5.3a1.442,1.442,0,0,0,.362.967l0,0a1.179,1.179,0,0,0,.872.4H34.567a1.179,1.179,0,0,0,.872-.4l0,0a1.44,1.44,0,0,0,.362-.967V21.148a1.442,1.442,0,0,0-.362-.967l0,0a1.179,1.179,0,0,0-.872-.4h-4.95a2.61,2.61,0,0,1,.08.479c.053.724.026,1.552.022,2.283,0,.683-.013,1.366-.013,2.049v3.857a.8.8,0,0,0,.773-.281,1,1,0,0,0,.231-.645h0V21.667H34.1V37.7H19.6v-4.78h-1.7v5.293a1.442,1.442,0,0,1-.362.967l0,0a1.179,1.179,0,0,1-.872.4H1.236a1.179,1.179,0,0,1-.872-.4l0,0A1.44,1.44,0,0,1,0,38.217V21.143a1.442,1.442,0,0,1,.362-.967l0,0a1.179,1.179,0,0,1,.872-.4ZM10.19,34.632h4.053a.9.9,0,0,1,.853.943h0a.9.9,0,0,1-.853.943H10.19a.9.9,0,0,1-.853-.943h0A.9.9,0,0,1,10.19,34.632Zm17.9.005H32.14a.9.9,0,0,1,.853.943h0a.9.9,0,0,1-.853.943H28.087a.9.9,0,0,1-.853-.943h0A.9.9,0,0,1,28.087,34.637Z" transform="translate(0 0.01)"/></svg>