<svg xmlns="http://www.w3.org/2000/svg" width="36.106" height="40" viewBox="0 0 36.106 40"><defs><style>.a{fill:#9e4ac1;fill-rule:evenodd;}</style></defs><path class="a" d="M35.986,10.829c.21-.627.085-6.505.086-7.684,0-1.362.105-2.446-.959-2.932C34.336-.14,21.873.042,19.652.041c-1.339,0-2.422.024-2.782,1.165-.228.722-.086,6.5-.087,7.729,0,1.311-.046,2.479,1,2.924.76.325,13.241.152,15.45.154,1.451,0,2.355.014,2.756-1.184ZM12.617,17.485v7.345l.006.123.018.12.03.116.041.111.051.106.061.1.07.093.078.086.086.078.093.07.1.061.106.051.111.041.116.03.12.018.123.006h7.345l.123-.006.12-.018.116-.03.111-.041.106-.051.1-.061.093-.07.086-.078.078-.086.07-.093.061-.1.051-.106.041-.111.03-.116.018-.12.006-.123V17.485l-.006-.123-.018-.12-.03-.116-.041-.111-.051-.106-.061-.1-.07-.093-.078-.086-.086-.078-.122-.087-.072-.044-.106-.051-.111-.041-.116-.03-.12-.018-.123-.006H13.828l-.123.006-.12.018-.116.03-.111.041-.106.051-.1.061-.093.07-.086.078-.078.086-.07.093-.061.1-.051.106-.041.111-.03.116-.018.12-.006.123Zm-.57,7.439V17.07l.007-.132.02-.128.032-.124.044-.119.055-.113.065-.107.075-.1.084-.092.092-.084.1-.075.107-.065.113-.055.119-.044.124-.032.128-.02.132-.007H21.2l.132.007.128.02.124.032.119.044.113.055.077.047-1.761-1.2-.1-.075-.107-.065-.113-.055-.119-.044-.124-.032-.128-.02-.132-.007H11.451l-.132.007-.128.02-.124.032-.119.044-.113.055-.107.065-.1.075-.092.084-.084.092-.075.1-.065.107-.055.113-.044.119-.032.124-.02.128-.007.132V23.63l.007.132.02.128.032.124.044.119.055.113.065.107.075.1.084.092.092.084.1.075L12.619,26l-.1-.075-.092-.084-.084-.092-.075-.1L12.2,25.54l-.055-.113-.044-.119-.032-.124-.02-.128-.007-.132Zm19.512,1.355c.2,2.527.253,4.5-1.264,5.831-1.606,1.413-3.882.7-6.155.921l.031,2.552c3.262.256,6.03.182,7.985-1.612,2.422-2.223,1.842-3.841,2.064-7.665.76-.133,1.851.142,1.888-.418a11.536,11.536,0,0,0-1.422-2.732c-.266-.458-.507-.925-.8-1.419-.954-1.627-.934-1.816-1.988.038-.656,1.153-2.351,3.647-2.14,4.433l1.8.07ZM19.247,38.767c.21-.627.085-6.505.086-7.684,0-1.362.105-2.446-.959-2.932-.776-.354-13.239-.171-15.461-.173-1.339,0-2.422.024-2.782,1.165-.228.722-.086,6.5-.087,7.729,0,1.311-.046,2.479,1,2.924.76.325,13.241.152,15.45.154,1.451,0,2.355.014,2.756-1.184ZM1.466,31.426c1.865.144,1.883-1.27,1.973-1.974h12.38c.09.784,0,1.083.512,1.581a1.677,1.677,0,0,0,1.555.472l-.014,5.144c-1.442-.153-1.921.557-2.091,1.854H3.485c-.245-1.273-.413-2.069-2.044-1.973l.025-5.105Zm7.473-1c-4.827,1.1-3.082,8.185,1.591,7.117a3.686,3.686,0,0,0,2.735-4.393,3.626,3.626,0,0,0-4.326-2.725Zm.289,5.039a8.653,8.653,0,0,1-1.374-1.447l.717-.641.64.658c.556-.409,1.17-1.307,1.708-1.571l.612.626a22.866,22.866,0,0,1-2.3,2.374Zm5.48-2.414a.988.988,0,1,0,.659,1.861C16.506,34.548,16.019,32.569,14.709,33.051ZM4.065,33.044a.983.983,0,0,0,.577,1.88C5.819,34.571,5.414,32.6,4.065,33.044Zm.486-19.333c-.2-2.527-.253-4.5,1.264-5.831C7.421,6.467,9.7,7.18,11.97,6.96l-.031-2.552c-3.262-.256-6.03-.182-7.985,1.612C1.532,8.242,2.111,9.86,1.89,13.684,1.13,13.817.039,13.542,0,14.1a11.536,11.536,0,0,0,1.422,2.732c.266.458.507.925.8,1.419.954,1.627.934,1.816,1.988-.038.656-1.153,2.351-3.647,2.14-4.433l-1.8-.07ZM18.2,3.487c1.865.144,1.883-1.27,1.973-1.974h12.38c.09.784,0,1.083.512,1.581a1.677,1.677,0,0,0,1.555.472l-.014,5.144c-1.442-.153-1.921.557-2.091,1.854h-12.3c-.245-1.273-.413-2.069-2.044-1.973L18.2,3.487Zm7.473-1c-4.827,1.1-3.082,8.185,1.591,7.117A3.686,3.686,0,0,0,30,5.212a3.626,3.626,0,0,0-4.326-2.725Zm.289,5.039A8.653,8.653,0,0,1,24.593,6.08l.717-.641.64.658c.556-.409,1.17-1.307,1.708-1.571l.612.626a22.867,22.867,0,0,1-2.3,2.374Zm5.48-2.414a.988.988,0,1,0,.659,1.861c1.138-.365.651-2.343-.659-1.861ZM20.8,5.106a.983.983,0,0,0,.577,1.88C22.557,6.633,22.153,4.66,20.8,5.106Z" transform="translate(-0.002 0.005)"/></svg>